<?xml version="1.0" standalone="no"?>
<!DOCTYPE svg PUBLIC "-//W3C//DTD SVG 20010904//EN"
 "http://www.w3.org/TR/2001/REC-SVG-20010904/DTD/svg10.dtd">
<svg version="1.0" xmlns="http://www.w3.org/2000/svg"
 width="687.000000pt" height="687.000000pt" viewBox="0 0 687.000000 687.000000"
 preserveAspectRatio="xMidYMid meet">
<metadata>
Created by potrace 1.14, written by Peter Selinger 2001-2017
</metadata>
<g transform="translate(0.000000,687.000000) scale(0.100000,-0.100000)"
fill="#000000" stroke="none">
<path d="M0 6828 c0 -49 5 -47 14 5 4 23 3 37 -4 37 -5 0 -10 -19 -10 -42z"/>
<path d="M96 6818 c2 -29 9 -91 15 -136 6 -46 9 -100 5 -120 -4 -26 -2 -32 4
-22 8 12 10 11 10 -7 0 -13 -4 -23 -8 -23 -5 0 -6 -14 -4 -31 3 -17 0 -34 -6
-38 -6 -4 -12 -32 -13 -64 -1 -31 -6 -57 -12 -57 -5 0 -7 -6 -4 -14 3 -8 2
-16 -2 -18 -10 -4 -61 -160 -61 -187 0 -11 -5 -23 -10 -26 -12 -8 -12 -421 0
-450 6 -13 9 19 10 90 2 127 11 197 25 202 6 2 21 -6 33 -17 19 -18 22 -32 22
-90 0 -39 4 -70 10 -70 5 0 7 -21 3 -52 -4 -30 -2 -49 3 -46 5 4 9 -15 10 -40
2 -122 10 -202 20 -198 6 2 9 -8 6 -28 -2 -18 0 -26 5 -19 5 6 8 -8 8 -35 0
-26 4 -56 9 -67 11 -27 15 -85 4 -79 -7 5 -10 -3 -7 -22 0 -4 -3 -10 -8 -13
-5 -3 -16 -22 -25 -41 -13 -26 -14 -36 -5 -42 11 -7 2 -12 -16 -9 -10 1 -9
-11 3 -29 8 -12 10 -12 16 4 5 14 9 15 16 4 7 -10 8 -8 4 5 -7 21 44 128 56
121 5 -3 6 -30 2 -60 -4 -37 -3 -54 5 -54 6 0 11 -7 11 -16 0 -8 4 -13 9 -10
5 4 7 -2 4 -12 -2 -11 2 -26 11 -34 8 -9 13 -18 10 -21 -3 -3 -1 -14 6 -24 11
-17 11 -17 5 2 -4 15 -3 17 5 9 6 -6 13 -29 15 -52 3 -35 26 -86 46 -102 3 -3
14 -29 24 -57 11 -30 22 -48 26 -42 4 8 11 4 19 -11 9 -17 9 -21 0 -15 -7 4
-5 -5 4 -23 9 -17 19 -32 23 -34 11 -4 48 -58 57 -83 l7 -20 16 20 c15 19 15
19 9 -7 -5 -22 -3 -28 9 -28 10 0 13 -5 9 -12 -5 -7 -3 -8 5 -4 8 5 12 3 10
-5 -3 -29 2 -39 22 -39 11 0 17 -4 14 -10 -3 -5 0 -10 6 -10 21 0 79 -73 79
-100 0 -14 7 -36 15 -50 8 -14 14 -50 15 -81 0 -30 4 -59 9 -65 5 -5 11 -16
14 -24 2 -8 3 -2 1 14 -3 24 -2 27 11 16 8 -7 13 -16 10 -20 -3 -4 2 -13 11
-20 8 -7 13 -19 10 -27 -3 -8 3 -24 14 -36 11 -12 18 -28 15 -37 -5 -11 -3
-12 5 -4 9 9 9 17 1 32 -16 31 -73 203 -68 208 6 7 107 -204 107 -224 0 -13
28 -23 35 -12 7 11 -15 60 -27 60 -4 0 -8 6 -8 13 0 7 -20 57 -45 112 -24 54
-42 101 -39 104 3 3 9 -1 14 -9 6 -8 10 -10 10 -4 0 6 -6 17 -14 23 -7 6 -16
30 -19 54 -4 23 -9 56 -13 74 -6 32 -6 32 20 20 14 -7 24 -17 22 -23 -6 -16
49 -125 58 -117 4 4 4 0 1 -9 -4 -9 -2 -19 4 -23 17 -10 13 -25 -4 -19 -8 4
-15 1 -15 -5 0 -6 3 -10 8 -10 22 4 34 -7 80 -75 27 -41 53 -72 56 -69 3 4 6
-5 6 -18 0 -21 19 -66 20 -46 0 13 25 -15 43 -48 31 -59 44 -92 86 -215 24
-69 46 -129 50 -135 4 -5 13 -30 20 -55 7 -25 27 -70 44 -100 100 -175 92
-154 112 -285 10 -70 36 -168 71 -272 l54 -162 -25 -93 c-40 -150 -58 -283
-58 -423 0 -98 4 -139 16 -165 13 -27 16 -30 17 -14 0 17 8 24 38 30 20 4 40
7 45 6 4 -1 7 2 7 7 0 5 14 14 31 20 l31 11 -6 -33 c-20 -112 -27 -240 -23
-415 4 -178 7 -206 32 -294 16 -53 32 -95 37 -92 4 3 5 -10 2 -28 -4 -21 -2
-28 3 -20 11 15 38 -37 48 -92 4 -20 11 -34 15 -31 5 3 8 -3 7 -13 -2 -26 30
-89 49 -96 17 -6 16 12 -3 61 -6 16 -5 16 8 3 8 -8 18 -24 22 -34 4 -10 10
-16 14 -13 7 7 -57 137 -68 137 -6 0 -26 93 -33 155 -2 17 -5 32 -6 35 -4 11
-1 198 4 221 2 13 9 62 16 108 9 69 30 153 56 230 3 9 20 -9 44 -50 21 -35 50
-77 64 -93 31 -35 31 -32 6 -58 -11 -12 -20 -26 -20 -31 0 -5 13 6 28 26 23
28 30 32 38 21 10 -15 74 -37 74 -25 0 4 -15 11 -32 16 -28 8 -33 15 -32 38 0
25 -1 27 -12 12 -11 -14 -16 -12 -49 24 -45 48 -67 89 -58 105 3 6 2 7 -2 3
-5 -4 -16 7 -26 24 -14 27 -14 38 -4 78 7 25 23 83 35 128 20 74 70 170 81
158 3 -2 13 18 23 45 18 51 126 267 162 327 l20 32 14 -47 c8 -26 13 -53 11
-61 -1 -7 2 -10 8 -7 6 4 8 -13 4 -48 -7 -71 48 -651 64 -666 3 -3 1 27 -4 65
-10 90 -10 204 1 230 9 20 9 20 -7 0 -15 -19 -15 -19 -15 5 1 14 -4 83 -11
153 -7 71 -10 139 -7 153 4 13 2 33 -3 43 -7 11 -7 35 -2 62 5 25 9 34 10 20
2 -41 23 -152 28 -147 3 2 -2 49 -10 103 -30 194 -31 226 -6 285 34 80 22 78
149 26 40 -17 61 -16 73 4 17 26 30 22 25 -6 -4 -20 0 -26 19 -31 20 -5 23 -8
13 -20 -7 -8 -10 -21 -7 -29 3 -7 2 -17 -3 -22 -4 -5 -5 -25 -2 -44 4 -29 6
-32 13 -15 7 17 8 16 8 -7 1 -16 7 -28 14 -28 9 0 8 -3 -2 -9 -34 -22 62 -112
146 -138 32 -9 64 -16 72 -14 8 1 33 -3 57 -9 37 -11 42 -16 48 -48 8 -53 7
-84 -3 -78 -5 4 -7 -47 -5 -124 3 -78 1 -130 -4 -130 -6 0 -10 -6 -9 -12 0 -7
-1 -33 -2 -58 -2 -36 -4 -41 -11 -25 -7 14 -8 8 -4 -20 4 -30 3 -36 -5 -25 -9
13 -11 12 -9 -5 3 -44 -2 -86 -11 -81 -5 4 -7 -8 -4 -25 3 -21 1 -29 -7 -24
-7 5 -9 -2 -5 -22 5 -19 4 -24 -3 -14 -7 9 -9 0 -7 -28 1 -29 -2 -41 -11 -41
-8 0 -14 -5 -14 -11 0 -5 4 -8 9 -5 5 4 7 -3 4 -15 -5 -16 -8 -18 -15 -7 -6 9
-7 6 -3 -9 4 -13 2 -23 -4 -23 -6 0 -8 -7 -5 -15 4 -8 1 -15 -6 -15 -7 0 -10
-7 -6 -15 3 -8 1 -15 -4 -15 -5 0 -7 -7 -4 -15 4 -8 9 -15 13 -15 12 0 124
385 119 408 -1 4 1 14 5 22 14 38 26 145 27 240 0 58 3 126 6 152 l7 48 37
-54 c36 -51 86 -165 124 -282 16 -48 16 -107 0 -161 -3 -13 -3 -23 0 -23 10 0
29 53 27 75 -1 18 0 18 11 4 113 -139 143 -168 202 -198 44 -22 139 -48 196
-55 14 -2 35 -8 47 -14 28 -16 33 -15 33 3 0 13 9 15 48 9 43 -5 48 -4 57 18
6 12 18 24 27 26 13 3 18 -7 24 -45 4 -26 10 -50 14 -53 5 -3 15 -39 23 -80
45 -218 48 -520 6 -520 -5 0 -2 16 6 36 21 51 17 78 -4 30 -13 -31 -19 -37
-27 -25 -5 7 -11 129 -14 269 l-5 255 -7 -180 c-6 -158 3 -362 18 -386 11 -18
-36 -102 -90 -163 -70 -78 -128 -161 -161 -234 -14 -29 -25 -54 -25 -56 0 -2
-10 -25 -22 -52 -12 -27 -21 -57 -19 -68 2 -11 -2 -16 -8 -11 -13 7 -61 -33
-61 -52 0 -6 -6 -18 -12 -25 -7 -8 -19 -25 -26 -38 -9 -17 -4 -14 17 10 17 19
31 38 31 41 0 4 7 10 16 13 13 5 15 2 11 -15 -3 -12 -2 -18 3 -13 4 5 10 18
13 29 2 11 3 2 0 -20 -2 -22 -11 -46 -21 -53 -14 -10 -14 -14 -3 -21 10 -7 12
-24 7 -73 -4 -35 -10 -68 -14 -74 -9 -14 -109 -84 -120 -84 -4 0 -24 -11 -44
-25 -20 -14 -39 -25 -42 -25 -10 0 39 106 76 166 21 34 38 67 38 75 0 17 -64
-77 -74 -108 -4 -13 -12 -23 -18 -23 -5 0 -7 -7 -4 -15 3 -9 -1 -18 -9 -21 -8
-3 -18 -22 -21 -42 -4 -21 -9 -31 -11 -24 -3 6 -8 10 -13 7 -5 -3 -20 18 -35
47 -14 29 -23 42 -19 28 3 -14 15 -39 25 -56 26 -42 24 -61 -7 -77 l-27 -14
27 -5 c17 -4 29 0 35 9 7 13 10 12 25 -2 9 -10 20 -15 23 -11 4 3 -2 13 -13
20 -22 17 -27 13 61 62 72 40 135 67 142 60 2 -2 -14 -34 -36 -70 -23 -37 -41
-69 -41 -71 0 -3 9 -5 20 -5 12 0 29 15 44 39 31 48 46 59 46 32 0 -12 5 -21
10 -21 6 0 8 -11 4 -25 -6 -24 -4 -25 36 -25 41 0 42 1 35 27 -7 31 -25 55
-25 35 0 -7 -4 -12 -10 -12 -5 0 -10 7 -10 15 0 8 5 15 10 15 6 0 10 8 10 18
0 13 -2 14 -9 4 -6 -10 -10 -8 -14 9 -4 13 -4 25 -2 28 3 2 5 -1 5 -7 0 -7 3
-12 8 -12 4 0 7 16 8 37 0 30 8 43 44 74 24 21 46 36 49 34 2 -3 11 1 20 8 28
24 106 64 116 61 6 -2 26 10 45 27 19 17 48 38 63 45 27 15 28 15 21 -13 -4
-15 -11 -36 -15 -45 -5 -9 -9 -25 -9 -35 1 -23 30 43 30 67 0 21 35 68 44 59
4 -3 -4 -18 -16 -34 -19 -25 -20 -27 -2 -17 23 12 104 101 104 114 0 5 4 6 10
3 6 -3 10 -1 10 6 0 7 2 10 5 8 2 -3 -2 -25 -10 -49 -7 -25 -14 -40 -14 -35
-1 12 -21 -16 -21 -30 0 -5 5 -3 10 5 15 23 12 5 -12 -73 -11 -40 -27 -76 -35
-80 -7 -4 -13 -15 -13 -23 0 -13 -46 -75 -103 -139 -18 -20 -19 -19 -13 40 4
51 4 54 -4 20 -5 -22 -9 -54 -9 -71 -1 -18 -10 -39 -21 -49 -25 -23 -25 -34 0
-32 11 1 20 6 20 12 0 12 17 36 73 97 20 23 37 37 37 31 0 -6 -6 -16 -14 -22
-8 -7 -18 -26 -21 -42 -4 -16 -10 -29 -14 -29 -4 0 -13 -11 -19 -25 l-12 -25
1580 0 1580 0 0 225 c0 205 -2 226 -17 233 -10 4 -63 7 -119 7 -98 0 -145 -11
-166 -40 -4 -5 -8 1 -9 15 0 16 -3 19 -6 10 -7 -15 -28 -40 -36 -40 -12 0 -16
34 -6 46 8 10 8 21 0 41 -9 23 -10 23 -7 4 7 -37 -11 -57 -52 -55 -34 1 -34 1
-4 -3 30 -4 32 -7 32 -44 0 -24 -5 -39 -12 -40 -59 -3 -79 -18 -71 -50 5 -19
3 -21 -44 -23 -28 -1 -28 0 -31 70 -3 65 -1 72 18 77 15 4 20 13 20 41 0 29 5
39 23 46 18 7 15 9 -20 9 -23 1 -43 -4 -45 -10 -2 -5 -11 -7 -21 -3 -14 5 -17
15 -15 43 2 22 8 35 16 33 14 -2 16 14 2 23 -5 3 -10 1 -10 -5 0 -6 -4 -8 -10
-5 -5 3 -10 1 -10 -5 0 -7 -4 -7 -12 1 -14 12 -18 59 -5 59 4 0 7 5 7 12 0 6
-3 8 -7 5 -3 -4 -13 -1 -21 6 -13 10 -15 9 -9 -6 10 -28 -16 -31 -57 -7 -20
12 -52 22 -71 23 -33 1 -35 3 -35 33 0 18 -3 34 -7 37 -5 2 -2 2 5 0 20 -5 37
8 22 17 -8 5 16 22 63 46 66 33 75 41 74 63 -2 19 3 26 16 25 12 -1 17 6 17
24 0 14 3 22 8 18 4 -4 7 -20 7 -34 0 -22 5 -28 27 -30 22 -3 30 2 38 23 5 14
14 23 20 20 5 -3 10 -1 10 4 0 6 5 10 11 9 6 -2 14 3 17 11 3 8 0 11 -7 7 -7
-5 -11 2 -11 18 0 25 12 31 48 27 6 -1 12 3 12 9 0 5 5 10 10 10 6 0 10 -6 10
-14 0 -10 7 -12 22 -8 16 4 20 2 15 -10 -4 -12 -1 -14 14 -11 11 3 20 15 20
27 1 17 2 18 6 3 4 -16 7 -16 39 4 34 21 96 46 187 77 26 9 47 20 47 24 0 5 4
7 9 4 5 -4 21 -2 36 4 23 9 25 13 15 25 -9 10 -9 15 -1 15 8 0 11 749 11 2850
l0 2850 -3340 0 c-3333 0 -3340 0 -3340 -20 0 -28 -20 -25 -21 3 -2 41 -17
-34 -18 -94 -1 -38 -6 -61 -17 -70 -14 -11 -15 -9 -9 24 5 26 4 37 -5 37 -7 0
-11 14 -10 38 3 61 1 82 -10 82 -5 0 -7 -22 -4 -52z m2393 -13 c11 -19 18 -35
15 -35 -7 0 -53 54 -54 63 0 18 20 4 39 -28z m120 -34 c-2 -6 -10 2 -17 17
-11 25 -11 25 4 10 9 -9 15 -21 13 -27z m2195 8 c-3 -5 -10 -7 -15 -3 -5 3 -7
10 -3 15 3 5 10 7 15 3 5 -3 7 -10 3 -15z m-1490 -125 c5 -14 4 -15 -9 -4 -17
14 -19 20 -6 20 5 0 12 -7 15 -16z m-2867 -106 c-3 -7 -5 -2 -5 12 0 14 2 19
5 13 2 -7 2 -19 0 -25z m2993 20 c0 -4 5 -8 12 -8 16 0 48 -31 48 -47 0 -20
-21 -15 -27 7 -3 11 -9 20 -15 20 -5 0 -18 8 -29 18 -15 15 -16 19 -4 19 8 0
15 -4 15 -9z m-3003 -60 c-3 -8 -6 -5 -6 6 -1 11 2 17 5 13 3 -3 4 -12 1 -19z
m20 -20 c-3 -8 -6 -5 -6 6 -1 11 2 17 5 13 3 -3 4 -12 1 -19z m5778 0 c3 -13
7 -40 9 -60 3 -21 7 -42 11 -48 15 -25 -8 -27 -29 -3 -23 29 -39 93 -29 119 8
22 32 17 38 -8z m-5788 -50 c-3 -8 -6 -5 -6 6 -1 11 2 17 5 13 3 -3 4 -12 1
-19z m3108 -64 c9 -15 12 -23 6 -20 -11 7 -35 46 -28 46 3 0 12 -12 22 -26z
m-3098 -6 c-3 -8 -6 -5 -6 6 -1 11 2 17 5 13 3 -3 4 -12 1 -19z m3154 -45 c13
-16 12 -17 -3 -4 -10 7 -18 15 -18 17 0 8 8 3 21 -13z m-3463 -98 c-3 -30 -1
-55 4 -55 4 0 8 -8 8 -17 -1 -17 -2 -17 -14 0 -16 21 -19 127 -3 127 5 0 8
-22 5 -55z m3567 25 c3 -5 -1 -10 -9 -10 -8 0 -18 5 -21 10 -3 6 1 10 9 10 8
0 18 -4 21 -10z m2545 -5 c10 -12 10 -15 -4 -15 -9 0 -16 7 -16 15 0 8 2 15 4
15 2 0 9 -7 16 -15z m-1690 -31 c0 -24 -1 -24 -25 -8 -14 9 -25 20 -25 24 0 4
11 8 25 8 20 0 25 -6 25 -24z m24 1 c3 -8 1 -15 -4 -15 -6 0 -10 7 -10 15 0 8
2 15 4 15 2 0 6 -7 10 -15z m-4117 -17 c-3 -8 -6 -5 -6 6 -1 11 2 17 5 13 3
-3 4 -12 1 -19z m4420 8 c-2 -6 -17 -12 -33 -14 -26 -2 -27 -1 -12 11 21 16
50 18 45 3z m-1067 -5 c0 -6 -4 -13 -10 -16 -5 -3 -10 -1 -10 5 0 6 -4 9 -9 5
-5 -3 -12 -1 -16 5 -4 6 5 10 19 10 14 0 26 -4 26 -9z m825 -1 c3 -5 1 -10 -4
-10 -6 0 -11 5 -11 10 0 6 2 10 4 10 3 0 8 -4 11 -10z m1625 0 c0 -5 -5 -10
-11 -10 -5 0 -7 5 -4 10 3 6 8 10 11 10 2 0 4 -4 4 -10z m-1650 -21 c0 -6 -4
-7 -10 -4 -5 3 -10 11 -10 16 0 6 5 7 10 4 6 -3 10 -11 10 -16z m125 11 c3 -5
-1 -10 -10 -10 -9 0 -13 5 -10 10 3 6 8 10 10 10 2 0 7 -4 10 -10z m-4668 -22
c-3 -8 -6 -5 -6 6 -1 11 2 17 5 13 3 -3 4 -12 1 -19z m3763 2 c0 -5 -2 -10 -4
-10 -3 0 -8 5 -11 10 -3 6 -1 10 4 10 6 0 11 -4 11 -10z m40 -42 c0 -5 -7 -3
-15 6 -8 8 -15 18 -15 22 0 3 7 1 15 -6 8 -7 15 -17 15 -22z m-3800 -5 c0 -19
-3 -24 -10 -17 -6 6 -8 18 -4 27 9 24 14 21 14 -10z m54 -97 c-2 -36 0 -66 5
-66 5 0 11 -9 14 -20 3 -12 1 -18 -5 -14 -6 4 -6 -2 1 -14 6 -12 16 -24 21
-27 6 -3 10 -12 10 -18 0 -7 -4 -6 -10 3 -7 11 -10 7 -10 -18 0 -18 4 -31 9
-28 5 4 7 -4 4 -16 -4 -19 -3 -20 7 -8 9 13 11 12 6 -5 -2 -11 -8 -54 -12 -95
-6 -68 -5 -73 10 -61 14 12 16 10 16 -10 0 -13 7 -57 15 -98 18 -85 17 -184
-1 -221 -15 -28 -16 -26 -35 70 -7 36 -13 97 -13 136 -1 40 -4 67 -8 60 -4 -6
-8 5 -8 25 0 20 -3 39 -6 42 -8 7 -9 31 -17 297 -4 118 -3 194 2 178 5 -15 7
-56 5 -92z m3846 85 c0 -21 -6 -30 -21 -34 -20 -5 -20 -5 -4 13 10 11 15 26
12 35 -4 8 -2 15 3 15 6 0 10 -13 10 -29z m-3823 -3 c-3 -8 -6 -5 -6 6 -1 11
2 17 5 13 3 -3 4 -12 1 -19z m320 -10 c-3 -7 -5 -2 -5 12 0 14 2 19 5 13 2 -7
2 -19 0 -25z m103 -42 c0 -6 -7 -1 -15 10 -8 10 -15 23 -15 28 0 6 7 1 15 -10
8 -10 15 -23 15 -28z m-502 -78 l-3 -43 -18 33 c-13 24 -15 37 -8 46 6 7 8 15
6 18 -3 3 0 18 7 34 l12 29 4 -37 c2 -21 2 -57 0 -80z m4652 97 c0 -9 -9 -15
-21 -15 -18 0 -19 2 -9 15 7 8 16 15 21 15 5 0 9 -7 9 -15z m1920 -11 c0 -16
-16 -19 -25 -4 -8 13 4 32 16 25 5 -4 9 -13 9 -21z m-6480 -6 c0 -18 -2 -20
-9 -8 -6 8 -7 18 -5 22 9 14 14 9 14 -14z m317 -85 c-3 -10 -5 -4 -5 12 0 17
2 24 5 18 2 -7 2 -21 0 -30z m5779 -39 c-4 -9 -9 -15 -11 -12 -3 3 -3 13 1 22
4 9 9 15 11 12 3 -3 3 -13 -1 -22z m-5525 -24 c13 0 19 -7 19 -22 -1 -23 -1
-23 -16 -3 -13 17 -16 18 -24 5 -7 -11 -10 -8 -9 15 0 17 3 24 6 18 2 -7 13
-13 24 -13z m-244 -122 c-2 -13 -4 -5 -4 17 -1 22 1 32 4 23 2 -10 2 -28 0
-40z m4738 -22 c10 -7 27 -11 38 -8 14 3 18 1 15 -9 -8 -23 -31 -21 -63 6 -31
25 -23 35 10 11z m103 -42 c12 -4 22 -11 22 -16 0 -10 -39 -1 -54 13 -12 11
-1 11 32 3z m289 -111 c-3 -10 -5 -4 -5 12 0 17 2 24 5 18 2 -7 2 -21 0 -30z
m-5318 -73 c0 -10 -3 -8 -9 5 -12 27 -12 43 0 25 5 -8 9 -22 9 -30z m5348 -15
c-9 -7 -16 -19 -14 -26 2 -8 2 -11 0 -7 -3 4 -13 2 -23 -4 -11 -7 -23 -9 -27
-4 -4 4 -1 11 8 16 9 5 27 18 40 29 13 10 26 17 29 14 3 -2 -3 -10 -13 -18z
m-2252 -29 c-11 -8 -15 -18 -10 -26 5 -9 4 -11 -3 -6 -18 11 -14 34 5 45 25
13 31 4 8 -13z m42 -33 c-3 -10 -5 -4 -5 12 0 17 2 24 5 18 2 -7 2 -21 0 -30z
m2119 1 c-3 -8 -1 -25 5 -36 6 -11 8 -22 5 -25 -5 -5 -36 57 -36 72 0 3 7 5
16 5 11 0 14 -5 10 -16z m-1972 -27 c15 -24 -3 -35 -20 -13 -8 11 -14 24 -14
29 0 13 22 3 34 -16z m-988 -37 c-14 -17 -26 -26 -26 -19 0 15 41 61 48 54 2
-2 -7 -18 -22 -35z m3034 31 c0 -11 -31 -24 -39 -16 -3 3 1 10 9 15 19 12 30
12 30 1z m-5267 -58 c9 -24 15 -43 12 -43 -6 0 -35 69 -35 83 0 15 5 7 23 -40z
m3217 0 c0 -11 -4 -11 -20 -3 -11 6 -20 15 -20 19 0 5 9 7 20 4 11 -3 20 -12
20 -20z m2584 3 c-3 -9 -10 -13 -16 -10 -5 3 -4 12 3 20 15 18 22 13 13 -10z
m-1969 -6 c3 -5 -1 -10 -9 -10 -9 0 -16 5 -16 10 0 6 4 10 9 10 6 0 13 -4 16
-10z m-1825 -41 c0 -5 -7 -9 -15 -9 -15 0 -20 12 -9 23 8 8 24 -1 24 -14z
m-2115 -28 c-3 -11 -2 -22 4 -25 5 -3 12 -34 16 -68 9 -84 42 -232 70 -313 31
-94 124 -253 138 -239 3 3 8 -4 12 -17 4 -12 19 -34 34 -48 14 -14 34 -37 44
-51 10 -14 23 -25 29 -25 18 0 32 -48 24 -79 l-7 -27 -35 33 c-19 18 -48 55
-65 81 -16 26 -33 45 -39 42 -5 -3 -12 0 -16 6 -4 8 -3 9 4 5 7 -4 12 -1 12 9
0 12 -5 15 -16 11 -11 -4 -15 -2 -11 8 4 9 -9 37 -28 64 -18 27 -52 87 -75
133 -24 46 -45 86 -49 89 -3 3 -6 10 -6 15 0 6 -18 62 -39 125 -45 133 -53
218 -23 263 20 31 31 35 22 8z m155 -50 c-1 -13 -29 45 -29 59 0 8 6 0 14 -19
8 -18 15 -36 15 -40z m6277 47 c-3 -8 -6 -5 -6 6 -1 11 2 17 5 13 3 -3 4 -12
1 -19z m-220 -20 c-3 -8 -6 -5 -6 6 -1 11 2 17 5 13 3 -3 4 -12 1 -19z m-1090
-20 c-3 -8 -6 -5 -6 6 -1 11 2 17 5 13 3 -3 4 -12 1 -19z m-4937 -62 c0 -12
-5 -7 -19 24 -11 24 -11 24 3 6 9 -11 16 -24 16 -30z m5686 -14 c-18 -16 -18
-16 -6 6 6 13 14 21 18 18 3 -4 -2 -14 -12 -24z m-5661 -33 c9 -17 15 -33 13
-35 -3 -2 -12 12 -21 31 -21 43 -13 47 8 4z m1460 -16 c15 -19 25 -37 22 -40
-3 -2 -14 8 -24 24 -10 15 -27 36 -38 46 -16 13 -16 16 -3 11 9 -3 29 -21 43
-41z m-1516 -19 c26 -55 20 -70 -8 -23 -19 30 -28 69 -17 69 2 0 14 -21 25
-46z m5911 26 c0 -5 1 -13 3 -17 1 -3 -6 -7 -15 -9 -18 -2 -25 16 -11 29 10
10 23 8 23 -3z m-1940 -50 c0 -5 -4 -10 -10 -10 -5 0 -10 5 -10 10 0 6 5 10
10 10 6 0 10 -4 10 -10z m1485 -30 c3 -5 -1 -10 -10 -10 -9 0 -13 5 -10 10 3
6 8 10 10 10 2 0 7 -4 10 -10z m-5351 -201 c21 -60 36 -112 34 -115 -11 -10
-139 265 -138 294 1 4 15 -10 33 -31 21 -24 46 -77 71 -148z m5479 154 c-6
-16 -5 -16 10 -4 24 19 21 -2 -3 -24 -18 -17 -20 -17 -14 -2 4 10 1 17 -6 17
-10 0 -10 3 0 15 16 20 21 19 13 -2z m-23 -34 c0 -5 -11 -9 -25 -9 -14 0 -25
-4 -25 -10 0 -5 -4 -10 -10 -10 -17 0 -11 28 8 32 35 7 52 7 52 -3z m-80 -19
c0 -5 -4 -10 -10 -10 -5 0 -10 5 -10 10 0 6 5 10 10 10 6 0 10 -4 10 -10z
m-2660 -34 c0 -8 -6 -19 -14 -25 -19 -16 -31 15 -13 33 14 16 27 11 27 -8z
m-2062 -104 c11 -14 12 -14 12 3 0 18 1 18 13 1 7 -9 22 -18 35 -19 29 -2 31
-37 2 -37 -11 0 -23 7 -26 15 -4 8 -11 15 -17 15 -7 0 -7 -4 1 -12 7 -7 12
-21 12 -31 0 -13 5 -17 15 -13 17 6 18 4 9 -17 -8 -22 -55 -11 -76 16 -14 18
-15 23 -3 25 24 6 17 22 -9 22 -22 0 -56 31 -56 52 0 13 75 -4 88 -20z m-719
-27 c0 -5 -6 -1 -14 9 -8 11 -15 24 -15 30 0 5 7 1 15 -10 8 -10 14 -23 14
-29z m-131 10 c-3 -3 -9 2 -12 12 -6 14 -5 15 5 6 7 -7 10 -15 7 -18z m100
-20 c-3 -3 -9 2 -12 12 -6 14 -5 15 5 6 7 -7 10 -15 7 -18z m964 -17 c-7 -7
-12 -8 -12 -2 0 14 12 26 19 19 2 -3 -1 -11 -7 -17z m1560 -20 c-7 -7 -12 -8
-12 -2 0 6 3 14 7 17 3 4 9 5 12 2 2 -3 -1 -11 -7 -17z m-2472 2 c0 -5 -2 -10
-4 -10 -3 0 -8 5 -11 10 -3 6 -1 10 4 10 6 0 11 -4 11 -10z m920 -15 c0 -11
-11 -15 -36 -15 -22 0 -33 4 -29 11 4 6 13 8 19 6 7 -3 19 -1 27 4 19 12 19
11 19 -6z m50 11 c0 -3 -4 -8 -10 -11 -5 -3 -10 -1 -10 4 0 6 5 11 10 11 6 0
10 -2 10 -4z m60 -16 c0 -17 -23 -60 -32 -60 -5 0 -6 -5 -3 -10 9 -14 65 20
65 39 0 8 3 11 7 8 3 -4 12 -2 20 5 12 10 13 7 7 -18 -12 -51 -31 -98 -53
-134 -11 -19 -24 -42 -28 -50 -15 -33 -27 -38 -50 -23 -21 14 -23 14 -23 -1 0
-10 7 -16 16 -14 27 5 27 -19 0 -43 -14 -12 -23 -26 -20 -31 7 -10 -36 -27
-54 -21 -7 3 -10 13 -7 23 3 10 -1 25 -10 33 -36 36 -9 72 43 55 4 -2 8 1 9 7
2 5 -3 10 -10 10 -33 1 -57 18 -57 40 0 13 -3 32 -6 42 -3 10 2 7 10 -7 8 -14
15 -19 16 -12 0 6 11 12 24 12 26 0 88 39 92 58 1 7 0 8 -3 2 -8 -16 -70 -42
-93 -38 -20 3 -21 4 -3 27 18 23 26 31 86 83 32 28 57 36 57 18z m-193 -22
c-3 -8 -6 -5 -6 6 -1 11 2 17 5 13 3 -3 4 -12 1 -19z m63 -22 c0 -7 -9 -16
-20 -19 -17 -4 -18 -2 -9 14 11 22 29 25 29 5z m230 -17 c0 -11 -4 -17 -10
-14 -5 3 -10 -3 -10 -14 0 -11 -4 -23 -10 -26 -13 -8 -13 4 1 44 12 35 29 41
29 10z m-414 -11 c16 3 30 -1 35 -9 7 -12 9 -12 9 0 0 10 3 11 14 2 11 -9 16
-9 21 0 6 8 10 7 16 -2 13 -22 11 -29 -13 -38 -14 -5 -30 -4 -40 3 -25 15 -35
-1 -12 -19 11 -9 30 -13 46 -11 24 5 27 2 26 -24 -1 -26 -3 -27 -24 -19 -13 4
-24 5 -25 1 0 -4 -5 4 -10 17 -6 15 -15 21 -24 17 -8 -3 -15 -2 -15 2 0 4 -11
9 -26 10 -29 2 -56 15 -78 38 -27 26 -19 36 24 31 25 -3 40 0 41 7 0 8 2 8 5
0 3 -6 16 -9 30 -6z m-501 -38 c3 -5 1 -10 -4 -10 -6 0 -11 5 -11 10 0 6 2 10
4 10 3 0 8 -4 11 -10z m955 -15 c0 -30 -26 -107 -40 -120 -11 -10 -17 -21 -15
-25 6 -9 -102 -240 -139 -298 -14 -22 -39 -77 -56 -122 -18 -45 -35 -79 -38
-76 -3 3 -7 36 -8 74 -2 37 -4 85 -6 107 -1 22 0 66 4 98 5 50 11 64 39 91 19
18 42 35 52 39 10 4 16 11 12 17 -6 9 32 71 48 78 4 2 7 10 7 17 0 7 11 33 25
56 14 24 25 40 25 35 0 -15 -23 -91 -32 -102 -4 -6 -2 -11 6 -11 8 0 17 23 25
58 13 65 31 89 67 89 13 0 24 -2 24 -5z m-815 -68 c4 -9 10 -15 14 -13 14 9
41 -34 51 -80 6 -26 9 -48 8 -50 -2 -1 -17 4 -34 12 -30 14 -71 82 -78 126 -1
10 -5 21 -9 24 -4 4 -7 14 -7 21 0 19 47 -15 55 -40z m-109 -15 c-8 -8 -12 -1
-20 33 l-6 30 16 -28 c8 -16 13 -31 10 -35z m517 6 c9 -5 17 -5 18 -1 0 4 4
-1 9 -12 13 -29 12 -125 -1 -125 -5 0 -7 -4 -4 -10 3 -5 0 -7 -7 -5 -8 3 -14
14 -14 25 0 13 5 19 13 16 7 -3 13 -1 13 4 0 6 -5 10 -11 10 -6 0 -8 9 -4 22
6 17 4 20 -11 14 -19 -7 -84 47 -84 71 0 13 49 8 83 -9z m5316 -92 c-17 -32
-33 -55 -36 -53 -4 5 19 50 47 94 28 44 21 14 -11 -41z m-5509 -20 c0 -3 -4
-8 -10 -11 -5 -3 -10 -1 -10 4 0 6 5 11 10 11 6 0 10 -2 10 -4z m1500 -36 c0
-13 -1 -13 -10 0 -5 8 -10 22 -10 30 0 13 1 13 10 0 5 -8 10 -22 10 -30z
m3960 24 c0 -8 -5 -12 -10 -9 -6 4 -8 11 -5 16 9 14 15 11 15 -7z m-5510 -4
c0 -5 -4 -10 -10 -10 -5 0 -10 5 -10 10 0 6 5 10 10 10 6 0 10 -4 10 -10z
m235 -44 c11 -2 25 -5 32 -5 6 -1 13 -22 15 -50 1 -27 0 -47 -4 -44 -5 2 -8
-23 -8 -57 0 -34 3 -59 8 -56 4 2 6 -23 4 -57 -1 -34 1 -97 6 -141 7 -66 6
-75 -5 -60 -7 10 -13 24 -13 31 0 7 -4 13 -9 13 -5 0 -13 9 -16 21 -4 12 -29
58 -56 103 -27 44 -49 89 -49 99 0 9 -4 17 -10 17 -11 0 -35 42 -66 117 l-21
52 41 15 c38 13 101 14 151 2z m5276 -9 c-10 -9 -11 -8 -5 6 3 10 9 15 12 12
3 -3 0 -11 -7 -18z m-5145 -25 c-15 -15 -16 -15 -16 5 0 12 6 23 13 26 19 6
21 -13 3 -31z m-442 12 c15 -39 -4 -42 -24 -3 -8 15 -7 19 4 19 7 0 17 -7 20
-16z m100 -29 c4 -19 12 -35 18 -35 6 0 9 -3 5 -6 -7 -7 19 -61 39 -82 8 -7
14 -24 14 -38 0 -13 10 -34 23 -46 12 -13 21 -26 20 -30 -2 -5 2 -8 8 -8 5 0
7 -4 4 -10 -6 -9 0 -18 33 -55 6 -7 12 -18 12 -23 0 -5 11 -21 24 -35 13 -14
21 -28 18 -31 -3 -3 -1 -6 4 -6 25 0 69 -109 78 -190 4 -35 4 -35 -76 50 -109
115 -154 177 -163 224 -3 22 -13 49 -21 60 -15 22 -19 46 -6 46 4 0 22 -25 41
-56 18 -30 35 -53 38 -50 3 3 -13 34 -36 68 -23 34 -39 68 -36 76 3 8 0 10 -6
6 -7 -4 -10 -1 -7 7 3 8 -7 39 -23 70 -35 71 -47 129 -26 129 9 0 17 -13 21
-35z m5407 -124 c-6 -11 -11 -24 -11 -30 0 -15 27 -14 34 2 3 6 4 1 3 -13 -1
-14 -8 -25 -17 -25 -8 0 -20 -4 -26 -7 -7 -5 -10 3 -9 21 2 35 27 99 33 83 2
-6 -1 -20 -7 -31z m-5389 -36 c3 -14 1 -28 -3 -31 -5 -3 -9 1 -9 8 0 7 -3 24
-7 37 -4 16 -2 22 4 18 6 -4 13 -18 15 -32z m-33 -94 c0 -9 -5 -4 -11 12 -5
15 -14 27 -19 27 -5 0 -9 6 -9 13 1 6 10 1 20 -12 11 -13 20 -31 19 -40z m318
17 c-3 -7 -5 -2 -5 12 0 14 2 19 5 13 2 -7 2 -19 0 -25z m5024 -125 c-8 -15
-10 -15 -11 -2 0 17 10 32 18 25 2 -3 -1 -13 -7 -23z m-3551 2 c0 -8 -7 -15
-15 -15 -26 0 -18 20 13 29 1 1 2 -6 2 -14z m-1681 -91 c4 3 18 -9 32 -26 13
-17 63 -71 110 -120 94 -98 104 -119 88 -198 -4 -25 -8 -66 -9 -92 0 -82 -23
-59 -107 107 -49 97 -117 274 -126 325 -2 14 -2 19 0 12 3 -7 8 -10 12 -8z
m423 -319 c7 -5 33 -12 58 -14 25 -2 47 -7 50 -12 3 -4 24 -10 47 -11 35 -3
42 -7 46 -28 6 -32 -2 -42 -10 -12 -3 12 -9 19 -14 17 -4 -3 -4 -17 1 -30 14
-37 -7 -129 -45 -198 l-34 -61 -4 45 c-3 41 -4 41 -5 -12 -2 -65 -19 -122 -35
-116 -26 8 -163 317 -153 343 3 8 1 14 -4 14 -5 0 -8 8 -8 18 0 9 -3 26 -7 36
-6 14 -5 17 3 12 7 -4 12 -2 12 3 0 6 14 -3 30 -21 18 -19 30 -25 30 -16 0 8
-16 29 -35 48 -24 24 -35 43 -35 63 l0 30 49 -44 c27 -24 55 -48 63 -54z
m1630 -27 c-8 -8 -16 -7 -28 3 -15 12 -15 14 7 19 26 7 37 -6 21 -22z m-1322
-47 c0 -3 -11 -11 -25 -18 -27 -12 -33 -1 -13 21 12 13 38 11 38 -3z m-73 -23
c-3 -8 -6 -5 -6 6 -1 11 2 17 5 13 3 -3 4 -12 1 -19z m143 12 c0 -5 -5 -10
-11 -10 -5 0 -7 5 -4 10 3 6 8 10 11 10 2 0 4 -4 4 -10z m3407 -22 c-3 -8 -6
-5 -6 6 -1 11 2 17 5 13 3 -3 4 -12 1 -19z m-3461 -4 c-4 -9 -1 -23 5 -30 9
-11 6 -14 -15 -14 -21 0 -26 5 -26 24 0 15 7 26 18 29 9 3 19 5 21 6 2 0 0 -6
-3 -15z m2444 -26 c0 -19 -2 -20 -10 -8 -13 19 -13 30 0 30 6 0 10 -10 10 -22z
m-2885 -38 c4 -22 11 -38 16 -34 5 3 9 -6 9 -20 0 -13 7 -31 15 -40 9 -8 15
-17 15 -18 -6 -20 92 -183 103 -172 9 10 -7 -40 -42 -131 -17 -44 -31 -85 -31
-92 0 -6 -4 -14 -9 -18 -18 -10 -101 289 -100 360 0 11 -3 43 -7 72 -7 58 3
146 16 138 4 -3 11 -23 15 -45z m270 -117 c-3 -10 -11 -43 -17 -73 -5 -30 -14
-60 -20 -67 -5 -7 -7 -17 -3 -23 9 -15 -19 -40 -35 -30 -10 6 -11 16 -3 42 10
29 11 30 12 8 1 -20 3 -22 11 -10 5 8 7 24 4 36 -5 20 39 134 52 134 3 0 3 -8
-1 -17z m5112 -46 c-8 -19 -19 -37 -25 -41 -5 -3 0 15 11 39 24 52 35 54 14 2z
m-5188 -183 c13 -11 14 -21 3 -80 -7 -38 -20 -120 -29 -182 l-16 -113 -28 58
c-40 82 -44 115 -24 171 40 113 70 181 74 169 2 -6 11 -17 20 -23z m5075 14
c-12 -21 -88 -98 -97 -98 -5 0 15 25 45 55 54 56 65 65 52 43z m-2650 -4 c23
-9 20 -24 -4 -24 -11 0 -20 7 -20 15 0 17 2 18 24 9z m-1999 -105 c-24 -81
-79 -226 -89 -237 -9 -9 7 86 21 128 26 76 85 211 90 206 3 -2 -7 -46 -22 -97z
m3020 -41 c-4 -18 -12 -42 -18 -53 -11 -19 -12 -19 -15 4 -2 13 1 28 7 34 6 6
11 19 11 29 0 10 5 18 11 18 7 0 8 -12 4 -32z m-2706 -14 c2 -2 -10 -4 -27 -4
-18 0 -32 5 -32 10 0 9 47 4 59 -6z m2651 -31 c0 -26 -16 -12 -18 15 -1 21 0
23 8 12 5 -8 10 -21 10 -27z m1449 -46 c-2 -3 -15 10 -28 27 l-24 31 28 -27
c16 -15 27 -29 24 -31z m-2182 -9 c-3 -8 -6 -5 -6 6 -1 11 2 17 5 13 3 -3 4
-12 1 -19z m2221 -10 c19 -19 14 -30 -8 -18 -11 6 -20 15 -20 20 0 14 14 12
28 -2z m-4041 -40 c-3 -8 -6 -5 -6 6 -1 11 2 17 5 13 3 -3 4 -12 1 -19z m4085
-53 c5 -11 -2 -6 -16 10 -14 17 -25 35 -25 40 0 11 25 -20 41 -50z m-2297 35
c3 -5 1 -10 -4 -10 -6 0 -11 5 -11 10 0 6 2 10 4 10 3 0 8 -4 11 -10z m-2741
-52 c8 -24 22 -69 31 -100 8 -32 18 -58 21 -58 6 0 1 25 -12 67 -5 17 -5 17 6
-1 7 -10 14 -44 16 -75 2 -31 8 -89 12 -128 5 -44 4 -73 -1 -73 -5 0 -7 -7 -3
-15 15 -39 -112 -185 -161 -185 -18 0 -17 218 2 336 21 128 55 274 65 274 5 0
15 -19 24 -42z m393 -86 c-37 -74 -107 -176 -114 -168 -3 2 8 24 24 48 30 43
112 209 114 231 1 7 4 -1 6 -16 3 -18 -7 -51 -30 -95z m4713 78 c0 -5 -14 -17
-31 -25 -29 -16 -31 -15 -27 2 2 10 8 18 15 18 6 0 15 3 19 8 10 10 24 9 24
-3z m54 -26 c3 -7 -3 -18 -13 -23 -15 -9 -18 -6 -18 19 0 29 20 32 31 4z
m-3993 -21 c-10 -17 -10 -17 -11 2 l-1 20 -9 -20 c-7 -16 -9 -17 -9 -3 -1 18
32 43 37 28 2 -5 -1 -17 -7 -27z m2176 -206 c-2 -23 -3 -1 -3 48 0 50 1 68 3
42 2 -26 2 -67 0 -90z m1333 42 c0 -5 -4 -9 -10 -9 -5 0 -10 7 -10 16 0 8 5
12 10 9 6 -3 10 -10 10 -16z m-144 -186 c-11 -11 -19 6 -11 24 8 17 8 17 12 0
3 -10 2 -21 -1 -24z m-56 -10 c0 9 5 17 10 17 16 0 11 -40 -5 -47 -18 -6 -55
23 -55 45 0 12 6 10 25 -8 21 -19 25 -21 25 -7z m261 -16 c-1 -12 -15 -9 -19
4 -3 6 1 10 8 8 6 -3 11 -8 11 -12z m-1384 -189 c-2 -29 -3 -8 -3 47 0 55 1
79 3 53 2 -26 2 -71 0 -100z m-3100 35 c-3 -16 -11 -41 -17 -58 -15 -40 -32
-14 -18 29 19 55 45 76 35 29z m4870 -5 c-3 -7 -5 -2 -5 12 0 14 2 19 5 13 2
-7 2 -19 0 -25z m-2391 -40 c-3 -13 -9 -40 -12 -60 -4 -21 -11 -38 -15 -38 -5
0 -4 -8 2 -18 9 -15 7 -33 -10 -85 -13 -37 -25 -67 -27 -67 -2 0 -4 57 -4 128
l0 127 28 17 c37 23 45 22 38 -4z m-2529 -109 c-8 -27 -12 -59 -9 -71 3 -14 1
-19 -6 -14 -13 8 -27 -48 -16 -65 5 -8 3 -9 -6 -4 -10 6 -12 1 -7 -26 4 -21 4
-29 -2 -21 -14 22 -32 -133 -30 -258 1 -61 -1 -113 -4 -116 -10 -10 -32 94
-32 151 0 66 12 140 26 167 5 10 7 29 3 43 -4 16 -2 25 6 25 8 0 10 9 6 24 -3
14 -1 28 5 31 6 4 8 18 5 30 -3 13 -1 27 4 30 6 4 10 14 9 23 -2 10 7 38 19
64 12 26 22 53 22 60 0 8 5 6 11 -5 7 -13 6 -32 -4 -68z m1915 1 c-19 -21 -19
-21 -8 14 8 26 13 31 19 21 5 -10 1 -22 -11 -35z m483 -144 c-7 -91 -20 -86
-17 6 2 54 7 77 13 67 5 -8 7 -41 4 -73z m2250 64 c19 -8 19 -9 -2 -9 -12 -1
-25 4 -28 9 -7 12 2 12 30 0z m-2612 -39 c-7 -28 -62 -90 -63 -70 0 9 9 24 20
34 11 10 20 26 20 37 0 10 6 18 14 18 9 0 12 -7 9 -19z m-2113 5 c0 -3 -4 -8
-10 -11 -5 -3 -10 -1 -10 4 0 6 5 11 10 11 6 0 10 -2 10 -4z m-34 -114 c-4
-26 -7 -66 -6 -89 0 -23 -4 -45 -10 -48 -12 -7 -13 48 -3 149 4 50 9 64 15 51
6 -9 7 -38 4 -63z m2162 3 l0 -30 -8 30 c-4 17 -8 41 -8 55 l0 25 8 -25 c4
-14 8 -38 8 -55z m529 -72 c-3 -10 -5 -4 -5 12 0 17 2 24 5 18 2 -7 2 -21 0
-30z m-107 -56 c0 -31 -56 -289 -80 -370 -20 -67 -23 -31 -6 60 17 89 46 258
48 280 1 7 5 10 10 7 4 -3 8 2 8 10 0 9 5 16 10 16 6 0 10 -1 10 -3z m87 -29
c-3 -8 -6 -5 -6 6 -1 11 2 17 5 13 3 -3 4 -12 1 -19z m2453 -40 c0 -7 -11 -14
-25 -14 -24 -2 -32 6 -18 19 11 12 43 8 43 -5z m90 -43 c0 -8 -4 -15 -10 -15
-5 0 -10 7 -10 15 0 8 5 15 10 15 6 0 10 -7 10 -15z m-670 -281 c0 -8 -5 -12
-10 -9 -6 4 -8 11 -5 16 9 14 15 11 15 -7z m573 -44 c3 -11 1 -18 -4 -14 -5 3
-9 0 -9 -5 0 -6 -4 -11 -8 -11 -5 0 -7 13 -4 30 5 32 16 32 25 0z m-1309 1 c3
-4 3 -11 0 -14 -8 -7 -44 4 -44 14 0 12 37 12 44 0z m1356 -4 c-14 -8 -27 -12
-30 -10 -7 6 23 23 40 23 8 0 4 -6 -10 -13z m-110 -41 c0 -6 -112 -57 -117
-53 -2 3 20 16 48 31 50 25 69 31 69 22z m-2947 -36 c-3 -11 -9 -20 -14 -20
-10 0 -12 24 -2 33 13 13 21 7 16 -13z m2648 -44 c-23 -52 -36 -61 -28 -17 6
28 37 75 44 67 2 -2 -5 -24 -16 -50z m-2365 9 c-4 -20 -3 -35 2 -35 11 0 -63
-146 -84 -168 -8 -7 -14 -17 -14 -20 0 -4 -22 -32 -50 -62 -27 -30 -50 -58
-50 -62 0 -14 -89 -108 -94 -100 -7 12 20 61 63 112 39 48 160 243 210 343 19
37 25 34 17 -8z m-324 -7 c-8 -8 -9 -4 -5 13 4 13 8 18 11 10 2 -7 -1 -18 -6
-23z m2424 -3 c4 -8 12 -15 20 -15 19 0 18 -29 -1 -36 -21 -9 -45 14 -45 42 0
27 17 32 26 9z m-1959 -27 c-3 -8 -6 -5 -6 6 -1 11 2 17 5 13 3 -3 4 -12 1
-19z m-493 -78 c-40 -73 -60 -91 -25 -21 12 22 21 46 21 53 0 20 33 64 38 50
2 -6 -13 -43 -34 -82z m496 25 c0 -8 -2 -15 -4 -15 -2 0 -6 7 -10 15 -3 8 -1
15 4 15 6 0 10 -7 10 -15z m-562 -89 c-17 -41 -42 -87 -55 -102 -13 -15 -23
-33 -23 -41 0 -10 -6 -12 -20 -8 -12 4 -20 2 -20 -5 0 -6 -7 -18 -15 -26 -13
-14 -15 -14 -15 0 0 26 23 69 77 144 51 69 88 112 97 112 3 0 -9 -34 -26 -74z
m2512 48 c0 -8 -5 -12 -10 -9 -6 4 -8 11 -5 16 9 14 15 11 15 -7z m-2423 -166
c-2 -18 -4 -4 -4 32 0 36 2 50 4 33 2 -18 2 -48 0 -65z m-40 -20 c-3 -8 -6 -5
-6 6 -1 11 2 17 5 13 3 -3 4 -12 1 -19z m2068 2 c3 -5 1 -10 -4 -10 -6 0 -11
5 -11 10 0 6 2 10 4 10 3 0 8 -4 11 -10z m-1772 -42 c-3 -16 -9 -28 -14 -28
-5 0 -9 -8 -9 -18 0 -29 -54 -105 -89 -125 -17 -10 -31 -15 -31 -10 1 17 57
116 95 168 41 56 57 60 48 13z m-311 -10 c-8 -8 -9 -4 -5 13 4 13 8 18 11 10
2 -7 -1 -18 -6 -23z m31 -70 c-13 -27 -21 -54 -17 -59 3 -6 -48 -64 -114 -130
l-120 -119 -4 51 c-3 58 0 64 57 104 54 39 171 160 186 195 9 20 16 24 24 17
8 -8 5 -24 -12 -59z m187 42 c0 -5 -5 -10 -11 -10 -5 0 -7 5 -4 10 3 6 8 10
11 10 2 0 4 -4 4 -10z m-24 -43 c-2 -12 -11 -40 -20 -62 -9 -21 -15 -44 -12
-51 3 -7 -6 -15 -20 -18 -13 -4 -24 -10 -24 -15 0 -5 -11 -8 -25 -6 -14 1 -23
0 -21 -3 12 -12 -163 -124 -179 -114 -5 3 36 47 90 96 55 50 122 114 150 142
56 59 67 64 61 31z m174 -14 c0 -29 -27 -94 -53 -128 -15 -19 -15 -19 -14 8 1
15 6 27 10 27 4 0 7 6 5 13 -4 17 32 107 43 107 5 0 9 -12 9 -27z m-491 -60
c-37 -46 -53 -63 -61 -63 -10 0 29 60 47 72 19 14 28 8 14 -9z m402 -150 c-12
-20 -14 -14 -5 12 4 9 9 14 11 11 3 -2 0 -13 -6 -23z m-514 -70 c-3 -10 -5 -2
-5 17 0 19 2 27 5 18 2 -10 2 -26 0 -35z m2178 -103 c-5 -8 -11 -8 -17 -2 -6
6 -7 16 -3 22 5 8 11 8 17 2 6 -6 7 -16 3 -22z"/>
<path d="M1393 4423 c-7 -2 -13 -8 -13 -13 0 -12 33 -5 38 8 4 12 -4 14 -25 5z"/>
<path d="M1380 4259 c0 -5 5 -7 10 -4 6 3 10 8 10 11 0 2 -4 4 -10 4 -5 0 -10
-5 -10 -11z"/>
<path d="M815 4540 c-3 -5 -1 -10 4 -10 6 0 11 5 11 10 0 6 -2 10 -4 10 -3 0
-8 -4 -11 -10z"/>
<path d="M1240 4182 c0 -12 3 -12 15 -2 8 7 15 13 15 15 0 1 -7 2 -15 2 -8 0
-15 -7 -15 -15z"/>
<path d="M1165 3960 c3 -5 8 -10 11 -10 2 0 4 5 4 10 0 6 -5 10 -11 10 -5 0
-7 -4 -4 -10z"/>
<path d="M1190 3934 c0 -13 18 -39 24 -34 2 3 -2 14 -10 24 -8 11 -14 16 -14
10z"/>
<path d="M1520 3482 c0 -5 14 -18 30 -30 37 -28 39 -22 5 13 -27 26 -35 30
-35 17z"/>
<path d="M1632 3395 c0 -16 2 -22 5 -12 2 9 2 23 0 30 -3 6 -5 -1 -5 -18z"/>
<path d="M3757 527 c-15 -23 -35 -53 -44 -67 -12 -17 -8 -15 14 8 34 35 77
102 65 102 -4 -1 -19 -20 -35 -43z"/>
<path d="M1 5455 c0 -144 18 -296 32 -265 3 8 4 3 1 -12 -4 -19 -2 -28 6 -28
8 0 10 -8 7 -22 -8 -28 12 -110 24 -102 14 8 11 -29 -6 -76 -15 -42 -13 -73 2
-34 10 28 26 41 42 36 10 -3 12 4 8 29 -8 50 -32 131 -37 126 -3 -3 -5 16 -4
41 0 26 -3 54 -8 62 -4 8 -16 89 -27 180 -28 232 -40 252 -40 65z"/>
<path d="M62 5435 c0 -16 2 -22 5 -12 2 9 2 23 0 30 -3 6 -5 -1 -5 -18z"/>
<path d="M73 5378 c-10 -15 5 -158 17 -158 13 0 20 44 9 51 -8 5 -8 9 0 13 6
4 11 12 11 18 0 6 -7 5 -17 -3 -15 -13 -16 -9 -11 39 5 56 5 58 -9 40z"/>
<path d="M116 5363 c-6 -14 -5 -15 5 -6 7 7 10 15 7 18 -3 3 -9 -2 -12 -12z"/>
<path d="M201 5124 c0 -11 3 -14 6 -6 3 7 2 16 -1 19 -3 4 -6 -2 -5 -13z"/>
<path d="M221 4954 c0 -11 3 -14 6 -6 3 7 2 16 -1 19 -3 4 -6 -2 -5 -13z"/>
<path d="M231 4884 c0 -11 3 -14 6 -6 3 7 2 16 -1 19 -3 4 -6 -2 -5 -13z"/>
<path d="M245 4825 c7 -31 12 -41 19 -34 2 2 -3 18 -11 34 l-14 30 6 -30z"/>
<path d="M261 4764 c0 -11 3 -14 6 -6 3 7 2 16 -1 19 -3 4 -6 -2 -5 -13z"/>
<path d="M800 4241 c0 -5 5 -13 10 -16 6 -3 10 -2 10 4 0 5 -4 13 -10 16 -5 3
-10 2 -10 -4z"/>
<path d="M820 3953 c0 -14 19 -38 25 -32 8 8 -5 39 -16 39 -5 0 -9 -3 -9 -7z"/>
<path d="M870 3945 c-14 -16 -10 -18 14 -9 9 3 16 10 16 15 0 14 -16 11 -30
-6z"/>
<path d="M847 3914 c-12 -12 -8 -24 8 -24 8 0 15 -5 15 -11 0 -5 6 -7 13 -3 7
5 6 0 -3 -11 -11 -14 -12 -19 -2 -22 6 -3 10 -9 6 -14 -3 -5 0 -9 5 -9 6 0 11
-7 11 -16 0 -9 11 -29 25 -45 13 -16 23 -35 21 -42 -1 -6 -1 -9 1 -4 8 14 21
7 26 -15 4 -12 9 -19 13 -15 8 7 38 -31 39 -48 1 -5 6 -9 12 -8 7 2 14 -5 17
-15 3 -9 15 -23 27 -30 21 -13 21 -13 3 17 -10 16 -39 54 -66 83 -26 29 -48
59 -48 66 0 7 -9 20 -21 30 -21 18 -52 79 -45 91 2 3 -2 12 -10 19 -8 7 -14
10 -14 5 0 -4 -6 1 -13 11 -7 9 -16 14 -20 10z"/>
<path d="M940 3860 c0 -5 5 -10 10 -10 6 0 10 -8 10 -18 0 -11 9 -27 20 -37
11 -10 20 -13 20 -7 0 7 -4 12 -10 12 -5 0 -10 8 -10 18 -1 28 -40 70 -40 42z"/>
<path d="M1053 3695 c-3 -9 -3 -18 -1 -21 3 -3 8 4 11 16 6 23 -1 27 -10 5z"/>
<path d="M1070 3669 c0 -5 5 -7 10 -4 6 3 10 8 10 11 0 2 -4 4 -10 4 -5 0 -10
-5 -10 -11z"/>
<path d="M920 3645 c0 -15 6 -25 14 -25 22 0 28 -17 16 -40 -8 -16 -8 -24 3
-35 13 -12 16 -12 20 5 3 11 1 18 -4 14 -13 -7 -11 -1 6 32 14 28 14 29 -10
32 -17 2 -25 10 -25 23 0 10 -4 19 -10 19 -5 0 -10 -11 -10 -25z"/>
<path d="M829 3622 c12 -23 41 -48 41 -35 0 10 -37 53 -46 53 -2 0 0 -8 5 -18z"/>
<path d="M1115 3621 c-3 -5 -1 -12 5 -16 5 -3 10 1 10 9 0 18 -6 21 -15 7z"/>
<path d="M912 3590 c0 -14 2 -19 5 -12 2 6 2 18 0 25 -3 6 -5 1 -5 -13z"/>
<path d="M2346 2505 c-9 -26 -7 -32 5 -12 6 10 9 21 6 23 -2 3 -7 -2 -11 -11z"/>
<path d="M2192 2390 c0 -14 2 -19 5 -12 2 6 2 18 0 25 -3 6 -5 1 -5 -13z"/>
<path d="M2250 2270 c-7 -16 -16 -30 -20 -30 -4 0 -10 -11 -12 -25 -3 -14 -4
-25 -3 -25 6 0 56 102 52 106 -2 3 -10 -9 -17 -26z"/>
<path d="M2211 2274 c0 -11 3 -14 6 -6 3 7 2 16 -1 19 -3 4 -6 -2 -5 -13z"/>
<path d="M2771 2124 c0 -11 3 -14 6 -6 3 7 2 16 -1 19 -3 4 -6 -2 -5 -13z"/>
<path d="M2241 2114 c0 -11 3 -14 6 -6 3 7 2 16 -1 19 -3 4 -6 -2 -5 -13z"/>
<path d="M1185 2090 c16 -16 37 -30 46 -30 10 0 19 -6 22 -12 3 -10 7 -10 19
-1 11 10 19 9 36 -3 20 -14 22 -14 22 0 0 9 -8 16 -17 16 -9 0 -40 14 -70 30
-29 17 -60 30 -70 30 -13 0 -11 -6 12 -30z"/>
<path d="M2251 2064 c0 -11 3 -14 6 -6 3 7 2 16 -1 19 -3 4 -6 -2 -5 -13z"/>
<path d="M1368 2063 c12 -2 22 -9 22 -14 0 -5 5 -9 11 -9 8 0 8 5 -1 15 -7 8
-22 14 -34 14 -20 -2 -20 -2 2 -6z"/>
<path d="M2136 2055 c-9 -26 -7 -32 5 -12 6 10 9 21 6 23 -2 3 -7 -2 -11 -11z"/>
<path d="M1340 2040 c0 -5 7 -10 16 -10 8 0 12 5 9 10 -3 6 -10 10 -16 10 -5
0 -9 -4 -9 -10z"/>
<path d="M2262 2020 c0 -14 2 -19 5 -12 2 6 2 18 0 25 -3 6 -5 1 -5 -13z"/>
<path d="M1320 2008 c0 -19 34 -25 45 -8 4 6 -1 7 -10 3 -10 -3 -21 0 -26 8
-7 11 -9 11 -9 -3z"/>
<path d="M2100 1999 c0 -5 5 -7 10 -4 6 3 10 8 10 11 0 2 -4 4 -10 4 -5 0 -10
-5 -10 -11z"/>
<path d="M2046 1923 c-6 -14 -5 -15 5 -6 7 7 10 15 7 18 -3 3 -9 -2 -12 -12z"/>
<path d="M2025 1889 c-4 -6 -5 -12 -2 -15 2 -3 7 2 10 11 7 17 1 20 -8 4z"/>
<path d="M1972 1824 c-12 -19 -20 -34 -18 -34 7 0 49 61 44 65 -2 2 -13 -12
-26 -31z"/>
<path d="M2960 1830 c0 -11 2 -20 4 -20 2 0 6 9 9 20 3 11 1 20 -4 20 -5 0 -9
-9 -9 -20z"/>
<path d="M3141 1774 c0 -11 3 -14 6 -6 3 7 2 16 -1 19 -3 4 -6 -2 -5 -13z"/>
<path d="M2161 1724 c0 -11 3 -14 6 -6 3 7 2 16 -1 19 -3 4 -6 -2 -5 -13z"/>
<path d="M2331 1724 c0 -11 3 -14 6 -6 3 7 2 16 -1 19 -3 4 -6 -2 -5 -13z"/>
<path d="M2130 1715 c-8 -9 -8 -15 -2 -15 12 0 26 19 19 26 -2 2 -10 -2 -17
-11z"/>
<path d="M3610 1710 c0 -5 5 -10 11 -10 5 0 7 -4 4 -10 -3 -5 -1 -10 4 -10 13
0 13 3 5 24 -7 18 -24 22 -24 6z"/>
<path d="M2090 1700 c0 -5 5 -10 10 -10 6 0 10 5 10 10 0 6 -4 10 -10 10 -5 0
-10 -4 -10 -10z"/>
<path d="M3535 1700 c-3 -5 -1 -10 4 -10 6 0 11 5 11 10 0 6 -2 10 -4 10 -3 0
-8 -4 -11 -10z"/>
<path d="M2050 1690 c0 -5 7 -10 15 -10 8 0 15 5 15 10 0 6 -7 10 -15 10 -8 0
-15 -4 -15 -10z"/>
<path d="M3568 1683 c7 -3 16 -2 19 1 4 3 -2 6 -13 5 -11 0 -14 -3 -6 -6z"/>
<path d="M1916 1577 c3 -10 9 -15 12 -12 3 3 0 11 -7 18 -10 9 -11 8 -5 -6z"/>
<path d="M1751 1558 c-14 -23 -14 -23 8 -4 22 20 25 26 13 26 -4 0 -13 -10
-21 -22z"/>
<path d="M1990 1531 c14 -28 12 -36 -5 -21 -28 23 -15 0 40 -73 30 -39 55 -80
55 -89 0 -10 6 -18 14 -18 7 0 21 -11 30 -25 10 -15 22 -23 29 -19 7 4 9 3 4
-1 -9 -10 21 -45 40 -45 7 0 13 -4 13 -10 0 -5 7 -10 15 -10 8 0 15 -4 15 -8
0 -11 56 -43 64 -35 3 3 6 1 6 -5 0 -7 5 -12 10 -12 6 0 29 -9 50 -19 22 -11
42 -16 45 -12 2 5 -21 20 -53 36 -31 15 -67 37 -79 48 -13 11 -23 18 -23 14 0
-11 -157 150 -201 206 -22 27 -46 65 -54 84 -8 18 -17 33 -20 33 -3 0 -1 -9 5
-19z"/>
<path d="M2290 1542 c0 -4 9 -13 20 -20 22 -13 27 -3 8 16 -14 14 -28 16 -28
4z"/>
<path d="M2635 1535 c-3 -8 -8 -23 -12 -32 -3 -10 -5 -21 -5 -26 1 -4 -4 -23
-12 -42 -8 -19 -11 -35 -7 -35 5 0 12 11 15 25 3 13 11 37 18 52 13 30 20 73
12 73 -3 0 -7 -7 -9 -15z"/>
<path d="M2339 1481 c7 -11 16 -21 21 -21 6 0 10 -6 10 -14 0 -8 25 -35 55
-61 30 -26 54 -50 54 -53 -4 -23 3 -33 17 -28 8 3 12 2 9 -4 -7 -11 33 -60 49
-60 6 0 27 -16 47 -35 20 -19 39 -31 43 -28 3 4 6 2 6 -4 0 -6 27 -28 60 -49
33 -22 60 -46 61 -54 0 -11 2 -12 6 -2 6 16 -24 52 -44 52 -7 0 -13 3 -13 8 0
4 -36 38 -81 76 -78 67 -81 70 -76 105 5 31 4 33 -5 14 -6 -13 -14 -23 -18
-23 -3 0 -47 42 -98 94 -100 103 -121 121 -103 87z"/>
<path d="M1551 1384 c0 -11 3 -14 6 -6 3 7 2 16 -1 19 -3 4 -6 -2 -5 -13z"/>
<path d="M2577 1373 c-4 -3 -7 -11 -7 -17 0 -6 5 -5 12 2 6 6 9 14 7 17 -3 3
-9 2 -12 -2z"/>
<path d="M2440 1121 c0 -11 31 -24 39 -16 3 3 -1 10 -9 15 -19 12 -30 12 -30
1z"/>
<path d="M2495 1100 c3 -5 8 -10 11 -10 2 0 4 5 4 10 0 6 -5 10 -11 10 -5 0
-7 -4 -4 -10z"/>
<path d="M1575 999 c-4 -6 -5 -12 -2 -15 2 -3 7 2 10 11 7 17 1 20 -8 4z"/>
<path d="M1256 963 c8 -33 10 -36 29 -39 17 -3 19 19 5 47 -17 31 -42 25 -34
-8z"/>
<path d="M6418 983 c7 -3 16 -2 19 1 4 3 -2 6 -13 5 -11 0 -14 -3 -6 -6z"/>
<path d="M1588 947 c-3 -15 -3 -25 0 -22 8 8 44 -136 38 -152 -3 -7 -1 -13 5
-13 14 0 6 57 -20 150 -15 55 -19 60 -23 37z"/>
<path d="M2131 824 c0 -11 3 -14 6 -6 3 7 2 16 -1 19 -3 4 -6 -2 -5 -13z"/>
<path d="M1635 740 c-3 -5 -1 -10 6 -10 6 0 9 -8 6 -20 -3 -11 -2 -20 3 -20 6
0 16 -32 20 -68 1 -4 7 -14 14 -22 7 -8 17 -28 20 -45 4 -16 11 -32 14 -35 13
-10 42 -68 42 -85 0 -9 5 -13 10 -10 6 3 10 1 10 -4 0 -6 8 -19 18 -30 9 -10
30 -32 45 -50 16 -17 32 -29 37 -26 4 3 6 -3 3 -13 -6 -25 22 -52 54 -52 18 0
24 -4 20 -15 -7 -16 61 -78 75 -69 4 3 5 -3 1 -12 -5 -12 -3 -15 6 -9 7 4 16
3 20 -2 3 -5 23 -19 44 -32 54 -33 67 -49 68 -84 l1 -32 12 36 c9 32 13 35 25
22 7 -8 19 -12 27 -9 9 3 14 -1 14 -11 0 -13 3 -14 12 -5 8 8 15 9 25 1 7 -7
13 -8 13 -4 0 4 7 2 15 -5 11 -9 19 -10 26 -3 7 7 2 13 -18 18 -38 9 -126 54
-135 68 -4 7 -8 36 -8 65 0 30 -4 51 -9 47 -5 -3 -11 0 -14 7 -2 7 -2 4 0 -7
11 -51 15 -105 8 -105 -13 0 -95 54 -95 63 0 4 -7 7 -15 7 -36 0 -298 284
-300 325 0 6 -17 43 -38 84 -20 41 -37 82 -37 91 0 8 -7 25 -15 36 -8 12 -11
24 -8 28 3 3 1 6 -5 6 -6 0 -14 -4 -17 -10z"/>
<path d="M6270 669 c0 -6 5 -7 10 -4 6 3 10 1 10 -5 0 -6 5 -8 10 -5 16 10 11
21 -10 22 -11 1 -20 -3 -20 -8z"/>
<path d="M2141 604 c0 -11 3 -14 6 -6 3 7 2 16 -1 19 -3 4 -6 -2 -5 -13z"/>
<path d="M2151 524 c0 -11 3 -14 6 -6 3 7 2 16 -1 19 -3 4 -6 -2 -5 -13z"/>
<path d="M6540 490 c-6 -11 -7 -20 -2 -20 6 0 12 9 15 20 3 11 3 20 1 20 -2 0
-8 -9 -14 -20z"/>
<path d="M2931 404 c0 -11 3 -14 6 -6 3 7 2 16 -1 19 -3 4 -6 -2 -5 -13z"/>
<path d="M2162 380 c0 -14 2 -19 5 -12 2 6 2 18 0 25 -3 6 -5 1 -5 -13z"/>
<path d="M2162 285 c0 -16 2 -22 5 -12 2 9 2 23 0 30 -3 6 -5 -1 -5 -18z"/>
<path d="M3706 254 c-4 -20 -5 -38 -3 -40 3 -3 8 11 11 32 4 20 5 38 3 40 -3
3 -8 -11 -11 -32z"/>
<path d="M2980 225 c0 -5 5 -17 10 -25 5 -8 10 -10 10 -5 0 6 -5 17 -10 25 -5
8 -10 11 -10 5z"/>
</g>
</svg>
